<svg width="1000" height="800" xmlns="http://www.w3.org/2000/svg">
  <defs>
    <!-- Gradients for different component types -->
    <linearGradient id="clientGrad" x1="0%" y1="0%" x2="100%" y2="100%">
      <stop offset="0%" style="stop-color:#4F46E5;stop-opacity:1" />
      <stop offset="100%" style="stop-color:#7C3AED;stop-opacity:1" />
    </linearGradient>
    
    <linearGradient id="networkGrad" x1="0%" y1="0%" x2="100%" y2="100%">
      <stop offset="0%" style="stop-color:#059669;stop-opacity:1" />
      <stop offset="100%" style="stop-color:#047857;stop-opacity:1" />
    </linearGradient>
    
    <linearGradient id="serviceGrad" x1="0%" y1="0%" x2="100%" y2="100%">
      <stop offset="0%" style="stop-color:#DC2626;stop-opacity:1" />
      <stop offset="100%" style="stop-color:#B91C1C;stop-opacity:1" />
    </linearGradient>
    
    <linearGradient id="storageGrad" x1="0%" y1="0%" x2="100%" y2="100%">
      <stop offset="0%" style="stop-color:#D97706;stop-opacity:1" />
      <stop offset="100%" style="stop-color:#B45309;stop-opacity:1" />
    </linearGradient>
    
    <linearGradient id="dbGrad" x1="0%" y1="0%" x2="100%" y2="100%">
      <stop offset="0%" style="stop-color:#7C2D12;stop-opacity:1" />
      <stop offset="100%" style="stop-color:#92400E;stop-opacity:1" />
    </linearGradient>
    
    <linearGradient id="cdnGrad" x1="0%" y1="0%" x2="100%" y2="100%">
      <stop offset="0%" style="stop-color:#1E40AF;stop-opacity:1" />
      <stop offset="100%" style="stop-color:#1D4ED8;stop-opacity:1" />
    </linearGradient>
    
    <!-- Arrow marker -->
    <marker id="arrowhead" markerWidth="10" markerHeight="7" 
     refX="0" refY="3.5" orient="auto">
      <polygon points="0 0, 10 3.5, 0 7" fill="#374151" />
    </marker>
    
    <!-- Bidirectional arrow marker -->
    <marker id="biArrow" markerWidth="10" markerHeight="7" 
     refX="0" refY="3.5" orient="auto">
      <polygon points="0 0, 10 3.5, 0 7" fill="#6B7280" />
    </marker>
  </defs>
  
  <!-- Background -->
  <rect width="1000" height="800" fill="#F9FAFB"/>
  
  <!-- Title -->
  <text x="500" y="30" text-anchor="middle" font-family="Arial, sans-serif" font-size="24" font-weight="bold" fill="#111827">
    Video Streaming Platform Architecture
  </text>
  
  <!-- Client -->
  <rect x="450" y="60" width="100" height="50" rx="8" fill="url(#clientGrad)" stroke="#312E81" stroke-width="2"/>
  <text x="500" y="90" text-anchor="middle" font-family="Arial, sans-serif" font-size="14" font-weight="bold" fill="white">Client</text>
  
  <!-- Load Balancer -->
  <rect x="430" y="140" width="140" height="50" rx="8" fill="url(#networkGrad)" stroke="#064E3B" stroke-width="2"/>
  <text x="500" y="170" text-anchor="middle" font-family="Arial, sans-serif" font-size="14" font-weight="bold" fill="white">Load Balancer</text>
  
  <!-- API Gateway Layer -->
  <rect x="420" y="220" width="160" height="50" rx="8" fill="url(#networkGrad)" stroke="#064E3B" stroke-width="2"/>
  <text x="500" y="250" text-anchor="middle" font-family="Arial, sans-serif" font-size="14" font-weight="bold" fill="white">API Gateway Layer</text>
  
  <!-- Upload Service -->
  <rect x="200" y="320" width="130" height="50" rx="8" fill="url(#serviceGrad)" stroke="#7F1D1D" stroke-width="2"/>
  <text x="265" y="350" text-anchor="middle" font-family="Arial, sans-serif" font-size="14" font-weight="bold" fill="white">Upload Service</text>
  
  <!-- Transcoding Service -->
  <rect x="670" y="320" width="150" height="50" rx="8" fill="url(#serviceGrad)" stroke="#7F1D1D" stroke-width="2"/>
  <text x="745" y="350" text-anchor="middle" font-family="Arial, sans-serif" font-size="14" font-weight="bold" fill="white">Transcoding Service</text>
  
  <!-- Object Storage -->
  <rect x="180" y="420" width="130" height="50" rx="8" fill="url(#storageGrad)" stroke="#78350F" stroke-width="2"/>
  <text x="245" y="450" text-anchor="middle" font-family="Arial, sans-serif" font-size="14" font-weight="bold" fill="white">Object Storage</text>
  
  <!-- Video Service -->
  <rect x="420" y="420" width="120" height="50" rx="8" fill="url(#serviceGrad)" stroke="#7F1D1D" stroke-width="2"/>
  <text x="480" y="450" text-anchor="middle" font-family="Arial, sans-serif" font-size="14" font-weight="bold" fill="white">Video Service</text>
  
  <!-- Metadata Service -->
  <rect x="670" y="420" width="140" height="50" rx="8" fill="url(#serviceGrad)" stroke="#7F1D1D" stroke-width="2"/>
  <text x="740" y="450" text-anchor="middle" font-family="Arial, sans-serif" font-size="14" font-weight="bold" fill="white">Metadata Service</text>
  
  <!-- Video DB -->
  <rect x="420" y="520" width="100" height="50" rx="8" fill="url(#dbGrad)" stroke="#78350F" stroke-width="2"/>
  <text x="470" y="550" text-anchor="middle" font-family="Arial, sans-serif" font-size="14" font-weight="bold" fill="white">Video DB</text>
  
  <!-- Metadata DB -->
  <rect x="690" y="520" width="120" height="50" rx="8" fill="url(#dbGrad)" stroke="#78350F" stroke-width="2"/>
  <text x="750" y="550" text-anchor="middle" font-family="Arial, sans-serif" font-size="14" font-weight="bold" fill="white">Metadata DB</text>
  
  <!-- CDN + Cache -->
  <rect x="200" y="620" width="120" height="50" rx="8" fill="url(#cdnGrad)" stroke="#1E3A8A" stroke-width="2"/>
  <text x="260" y="650" text-anchor="middle" font-family="Arial, sans-serif" font-size="14" font-weight="bold" fill="white">CDN + Cache</text>
  
  <!-- Recommendations Service -->
  <rect x="650" y="620" width="170" height="50" rx="8" fill="url(#serviceGrad)" stroke="#7F1D1D" stroke-width="2"/>
  <text x="735" y="650" text-anchor="middle" font-family="Arial, sans-serif" font-size="14" font-weight="bold" fill="white">Recommendations Service</text>
  
  <!-- Global Users -->
  <rect x="50" y="720" width="120" height="50" rx="8" fill="url(#clientGrad)" stroke="#312E81" stroke-width="2"/>
  <text x="110" y="750" text-anchor="middle" font-family="Arial, sans-serif" font-size="14" font-weight="bold" fill="white">Global Users</text>
  
  <!-- Analytics DB -->
  <rect x="700" y="720" width="120" height="50" rx="8" fill="url(#dbGrad)" stroke="#78350F" stroke-width="2"/>
  <text x="760" y="750" text-anchor="middle" font-family="Arial, sans-serif" font-size="14" font-weight="bold" fill="white">Analytics DB</text>
  
  <!-- Arrows -->
  <!-- Client to Load Balancer -->
  <line x1="500" y1="110" x2="500" y2="140" stroke="#374151" stroke-width="3" marker-end="url(#arrowhead)"/>
  
  <!-- Load Balancer to API Gateway -->
  <line x1="500" y1="190" x2="500" y2="220" stroke="#374151" stroke-width="3" marker-end="url(#arrowhead)"/>
  
  <!-- API Gateway to Upload Service -->
  <line x1="450" y1="270" x2="300" y2="320" stroke="#374151" stroke-width="3" marker-end="url(#arrowhead)"/>
  
  <!-- API Gateway to Transcoding Service -->
  <line x1="550" y1="270" x2="720" y2="320" stroke="#374151" stroke-width="3" marker-end="url(#arrowhead)"/>
  
  <!-- Upload Service to Object Storage -->
  <line x1="265" y1="370" x2="245" y2="420" stroke="#374151" stroke-width="3" marker-end="url(#arrowhead)"/>
  
  <!-- Bidirectional arrows -->
  <!-- Upload Service <-> Transcoding Service -->
  <line x1="330" y1="345" x2="670" y2="345" stroke="#6B7280" stroke-width="2" stroke-dasharray="5,5"/>
  <circle cx="330" cy="345" r="3" fill="#6B7280"/>
  <circle cx="670" cy="345" r="3" fill="#6B7280"/>
  
  <!-- Transcoding Service to Object Storage (curved) -->
  <path d="M 745 370 Q 500 400 310 445" stroke="#374151" stroke-width="3" fill="none" marker-end="url(#arrowhead)"/>
  
  <!-- Object Storage <-> Video Service -->
  <line x1="310" y1="445" x2="420" y2="445" stroke="#6B7280" stroke-width="2" stroke-dasharray="5,5"/>
  <circle cx="310" cy="445" r="3" fill="#6B7280"/>
  <circle cx="420" cy="445" r="3" fill="#6B7280"/>
  
  <!-- Video Service <-> Metadata Service -->
  <line x1="540" y1="445" x2="670" y2="445" stroke="#6B7280" stroke-width="2" stroke-dasharray="5,5"/>
  <circle cx="540" cy="445" r="3" fill="#6B7280"/>
  <circle cx="670" cy="445" r="3" fill="#6B7280"/>
  
  <!-- Video Service to Video DB -->
  <line x1="470" y1="470" x2="470" y2="520" stroke="#374151" stroke-width="3" marker-end="url(#arrowhead)"/>
  
  <!-- Metadata Service to Metadata DB -->
  <line x1="740" y1="470" x2="750" y2="520" stroke="#374151" stroke-width="3" marker-end="url(#arrowhead)"/>
  
  <!-- Video DB to CDN + Cache (curved) -->
  <path d="M 420 545 Q 340 580 260 620" stroke="#374151" stroke-width="3" fill="none" marker-end="url(#arrowhead)"/>
  
  <!-- CDN + Cache <-> Recommendations Service -->
  <line x1="320" y1="645" x2="650" y2="645" stroke="#6B7280" stroke-width="2" stroke-dasharray="5,5"/>
  <circle cx="320" cy="645" r="3" fill="#6B7280"/>
  <circle cx="650" cy="645" r="3" fill="#6B7280"/>
  
  <!-- CDN + Cache to Global Users -->
  <line x1="230" y1="670" x2="140" y2="720" stroke="#374151" stroke-width="3" marker-end="url(#arrowhead)"/>
  
  <!-- Recommendations Service to Analytics DB -->
  <line x1="735" y1="670" x2="760" y2="720" stroke="#374151" stroke-width="3" marker-end="url(#arrowhead)"/>
  
  <!-- Legend -->
  <rect x="50" y="50" width="200" height="180" fill="white" stroke="#D1D5DB" stroke-width="1" rx="5"/>
  <text x="60" y="70" font-family="Arial, sans-serif" font-size="16" font-weight="bold" fill="#111827">Legend</text>
  
  <rect x="60" y="80" width="15" height="15" fill="url(#clientGrad)"/>
  <text x="85" y="92" font-family="Arial, sans-serif" font-size="12" fill="#374151">Client/User Layer</text>
  
  <rect x="60" y="100" width="15" height="15" fill="url(#networkGrad)"/>
  <text x="85" y="112" font-family="Arial, sans-serif" font-size="12" fill="#374151">Network Layer</text>
  
  <rect x="60" y="120" width="15" height="15" fill="url(#serviceGrad)"/>
  <text x="85" y="132" font-family="Arial, sans-serif" font-size="12" fill="#374151">Application Services</text>
  
  <rect x="60" y="140" width="15" height="15" fill="url(#storageGrad)"/>
  <text x="85" y="152" font-family="Arial, sans-serif" font-size="12" fill="#374151">Storage Layer</text>
  
  <rect x="60" y="160" width="15" height="15" fill="url(#dbGrad)"/>
  <text x="85" y="172" font-family="Arial, sans-serif" font-size="12" fill="#374151">Database Layer</text>
  
  <rect x="60" y="180" width="15" height="15" fill="url(#cdnGrad)"/>
  <text x="85" y="192" font-family="Arial, sans-serif" font-size="12" fill="#374151">CDN Layer</text>
  
  <line x1="60" y1="205" x2="90" y2="205" stroke="#374151" stroke-width="3" marker-end="url(#arrowhead)"/>
  <text x="95" y="210" font-family="Arial, sans-serif" font-size="12" fill="#374151">Data Flow</text>
  
  <line x1="60" y1="215" x2="90" y2="215" stroke="#6B7280" stroke-width="2" stroke-dasharray="5,5"/>
  <circle cx="60" cy="215" r="2" fill="#6B7280"/>
  <circle cx="90" cy="215" r="2" fill="#6B7280"/>
  <text x="95" y="220" font-family="Arial, sans-serif" font-size="12" fill="#374151">Bidirectional</text>
</svg>